#!OML:ASF E:\Mandelcareful walks\Project 1\Capture day 1\Session 1\Subject1.ASF
:FULLY-SPECIFIED
:DEGREES
216
root -21.339 15.7696 0.856555 27.223 76.7938 14.0107
lowerback 31.8041 1.27338 1.51097
upperback 10.5792 2.79702 -2.11521
thorax -5.16745 1.79028 -4.24747
lowerneck -22.0808 14.0145 7.17986
upperneck 12.9721 22.3984 -23.0233
head 11.6782 8.67356 -5.1722
rclavicle 3.18055e-015 -1.59028e-015
rhumerus -19.9904 10.9578 -78.8114
rradius 64.5372
rwrist -18.0479
rhand -13.4568 -28.5182
rfingers 7.12502
rthumb 12.6528 -58.1149
lclavicle 3.18055e-015 -1.59028e-015
lhumerus -30.9858 -11.694 81.7468
lradius 47.5145
lwrist 19.7174
lhand -25.8464 -14.9194
lfingers 7.12502
lthumb 0.694111 15.0592
rfemur -20.0194 -6.83244 11.2749
rtibia 42.2039
rfoot -31.997 -8.99213
rtoes -4.11272
lfemur -51.3517 16.0055 -16.2651
ltibia 51.0553
lfoot -3.36434 10.6575
ltoes -15.6858
217
root -21.0202 15.7846 0.742718 26.503 75.7199 13.4829
lowerback 31.6234 1.79216 1.2692
upperback 10.7517 3.34905 -2.60265
thorax -4.82151 2.07908 -4.82429
lowerneck -21.6266 14.5521 7.81332
upperneck 12.5213 23.0355 -23.5969
head 11.713 9.01133 -5.32194
rclavicle -7.95139e-015 2.06736e-014
rhumerus -20.2269 10.6072 -78.982
rradius 65.3028
rwrist -18.2593
rhand -13.5076 -28.1089
rfingers 7.12502
rthumb 12.6038 -57.7087
lclavicle -7.95139e-015 2.06736e-014
lhumerus -31.5001 -12.2646 82.0757
lradius 47.8801
lwrist 19.8909
lhand -25.6076 -15.6189
lfingers 7.12502
lthumb 0.924712 14.3589
rfemur -17.9662 -6.47641 9.96514
rtibia 40.4866
rfoot -31.7224 -8.69618
rtoes -6.76569
lfemur -50.5344 16.9065 -17.1393
ltibia 52.7015
lfoot -5.37914 10.1035
ltoes -14.1829
218
root -20.7811 15.7686 0.663598 26.6628 76.2059 13.0684
lowerback 31.2162 1.93717 1.31597
upperback 10.5901 3.51723 -2.68598
thorax -4.79848 2.15249 -4.9826
lowerneck -20.9703 14.8706 8.40375
upperneck 11.9295 23.3054 -24.048
head 11.5729 9.2214 -5.51872
rclavicle 4.37326e-015 -2.70347e-014
rhumerus -20.6788 10.3982 -79.2097
rradius 66.1429
rwrist -18.6218
rhand -13.8066 -27.7396
rfingers 7.12502
rthumb 12.3156 -57.357
lclavicle 4.37326e-015 -2.70347e-014
lhumerus -32.0503 -12.6389 82.374
lradius 48.303
lwrist 19.9207
lhand -25.1325 -16.5086
lfingers 7.12502
lthumb 1.38358 13.4667
rfemur -16.5681 -6.48883 9.74492
rtibia 38.6432
rfoot -31.5068 -9.22462
rtoes -8.22475
lfemur -51.3485 17.1161 -17.671
ltibia 54.2699
lfoot -6.3102 9.3607
ltoes -14.0775
219
root -20.4879 15.7483 0.606491 21.3682 76.1704 7.68098
lowerback 31.2318 2.47827 1.45061
upperback 10.3926 4.22222 -2.41091
thorax -4.97886 2.4665 -4.99641
lowerneck -20.6415 15.0751 8.65145
upperneck 11.9057 23.5438 -24.0882
head 11.583 9.36146 -5.52496
rclavicle -2.74323e-014 9.54166e-015
rhumerus -21.482 10.4733 -79.3804
rradius 67.0196
rwrist -18.863
rhand -13.8921 -27.2588
rfingers 7.12502
rthumb 12.2332 -56.881
lclavicle -2.74323e-014 9.54166e-015
lhumerus -33.0525 -12.6166 82.8001
lradius 49.0737
lwrist 19.7146
lhand -24.7326 -16.5188
lfingers 7.12502
lthumb 1.76985 13.4536
rfemur -14.4147 -4.95548 10.5615
rtibia 36.5474
rfoot -31.5477 -9.9966
rtoes -8.52624
lfemur -51.1845 18.2422 -16.7978
ltibia 55.852
lfoot -7.47679 8.63916
ltoes -13.2609
220
root -20.1947 15.7393 0.523974 21.5965 76.373 7.46294
lowerback 30.6336 2.88171 0.894778
upperback 10.2363 4.55572 -2.25331
thorax -4.91225 2.60418 -4.57406
lowerneck -20.5149 15.1302 8.56384
upperneck 12.0624 23.6698 -23.9809
head 11.6087 9.4209 -5.45239
rclavicle 8.34896e-014 -6.83819e-014
rhumerus -22.1516 10.6619 -79.2444
rradius 67.838
rwrist -19.0139
rhand -13.9648 -26.3583
rfingers 7.12502
rthumb 12.163 -55.9847
lclavicle 8.34896e-014 -6.83819e-014
lhumerus -33.8199 -12.4059 83.4725
lradius 49.8558
lwrist 19.4721
lhand -24.8154 -16.5181
lfingers 7.12502
lthumb 1.68983 13.455
rfemur -12.6679 -4.49166 10.0681
rtibia 34.533
rfoot -31.5083 -10.5042
rtoes -8.88256
lfemur -51.5848 18.6953 -17.5243
ltibia 57.3931
lfoot -8.87499 7.9722
ltoes -12.3753
221
root -19.9016 15.7132 0.448592 19.9111 76.8434 5.40444
lowerback 30.2784 3.19166 0.909401
upperback 10.0769 4.94043 -2.10417
thorax -4.91369 2.77542 -4.52244
lowerneck -20.7834 15.0625 8.43103
upperneck 12.5361 23.5827 -23.487
head 11.71 9.35413 -5.27762
rclavicle -1.82882e-014 6.16232e-014
rhumerus -22.8804 10.6257 -79.4083
rradius 68.5285
rwrist -19.3003
rhand -14.4494 -25.9313
rfingers 7.12502
rthumb 11.6958 -55.5848
lclavicle -1.82882e-014 6.16232e-014
lhumerus -34.3602 -12.6433 83.8659
lradius 50.5864
lwrist 19.4554
lhand -24.929 -16.9028
lfingers 7.12502
lthumb 1.58016 13.0711
rfemur -10.6859 -3.65829 10.217
rtibia 32.3919
rfoot -31.5417 -11.3437
rtoes -8.59997
lfemur -51.9186 19.2708 -17.7089
ltibia 58.9865
lfoot -10.1308 7.12442
ltoes -13.4804
222
root -19.6117 15.6746 0.369986 19.2217 77.5185 4.36856
lowerback 29.6427 3.40092 0.837072
upperback 10.2286 5.21167 -1.92282
thorax -4.45532 2.91813 -4.30449
lowerneck -21.4906 14.9413 8.19351
upperneck 12.9453 23.4969 -23.2348
head 11.9045 9.23989 -5.14773
rclavicle -7.23576e-014 -3.97569e-015
rhumerus -23.0386 10.6791 -79.3063
rradius 69.1893
rwrist -20.0321
rhand -14.9221 -26.3712
rfingers 7.12502
rthumb 11.2399 -56.0501
lclavicle -7.23576e-014 -3.97569e-015
lhumerus -34.2154 -12.6728 84.1427
lradius 51.295
lwrist 19.2041
lhand -24.5663 -16.9683
lfingers 7.12502
lthumb 1.93046 13.0027
rfemur -8.75867 -3.19302 10.1796
rtibia 30.6276
rfoot -31.7368 -11.9722
rtoes -8.18949
lfemur -52.1877 19.516 -17.9906
ltibia 60.4968
lfoot -11.2877 6.1886
ltoes -14.4418
223
root -19.3213 15.6318 0.296984 19.7955 78.4004 4.29305
lowerback 29.1109 3.46156 0.740579
upperback 9.89878 5.22644 -1.99741
thorax -4.58122 2.90528 -4.31277
lowerneck -21.878 14.978 8.44475
upperneck 13.5477 23.528 -22.9324
head 12.1858 9.20612 -5.06343
rclavicle -1.66979e-014 -2.18663e-014
rhumerus -24.1216 10.7905 -79.765
rradius 70.3905
rwrist -20.588
rhand -15.0907 -26.3053
rfingers 7.12502
rthumb 11.0773 -55.9929
lclavicle -1.66979e-014 -2.18663e-014
lhumerus -34.6127 -12.7124 83.9097
lradius 52.0592
lwrist 18.8934
lhand -24.2286 -17.1233
lfingers 7.12502
lthumb 2.25661 12.8445
rfemur -7.23547 -3.0992 10.0522
rtibia 29.0725
rfoot -31.6066 -12.8482
rtoes -9.22655
lfemur -52.7904 19.3128 -18.3629
ltibia 61.9908
lfoot -12.7614 5.23504
ltoes -14.3031
224
root -19.0822 15.5738 0.245638 22.422 80.1656 5.99659
lowerback 28.5499 3.29427 0.527943
upperback 9.45463 4.92951 -1.91254
thorax -4.86723 2.73063 -3.988
lowerneck -21.9944 14.9523 8.64366
upperneck 13.9755 23.4652 -22.6919
head 12.3402 9.16167 -5.02729
rclavicle 5.52621e-014 3.57812e-015
rhumerus -25.539 10.9002 -80.055
rradius 72.0578
rwrist -20.9511
rhand -15.1419 -25.7918
rfingers 7.12502
rthumb 11.0279 -55.4821
lclavicle 5.52621e-014 3.57812e-015
lhumerus -34.8461 -12.8097 83.5695
lradius 52.8266
lwrist 18.6476
lhand -23.9843 -17.7724
lfingers 7.12502
lthumb 2.49248 12.1928
rfemur -6.10498 -3.30091 10.2079
rtibia 27.9587
rfoot -31.6034 -14.3302
rtoes -10.1325
lfemur -54.0175 18.3868 -18.7792
ltibia 63.4108
lfoot -13.9955 4.02507
ltoes -14.3783
